<?xml version="1.0" standalone="no"?>
<!DOCTYPE svg PUBLIC "-//W3C//DTD SVG 20010904//EN"
 "http://www.w3.org/TR/2001/REC-SVG-20010904/DTD/svg10.dtd">
<svg version="1.0" xmlns="http://www.w3.org/2000/svg"
 width="1080.000000pt" height="1080.000000pt" viewBox="0 0 1080.000000 1080.000000"
 preserveAspectRatio="xMidYMid meet">
<metadata>
Created by potrace 1.14, written by Peter Selinger 2001-2017
</metadata>
<g transform="translate(0.000000,1080.000000) scale(0.100000,-0.100000)"
fill="#000000" stroke="none">
<path d="M479 9611 c-176 -56 -306 -199 -339 -370 -7 -36 -10 -1043 -10 -3017
l0 -2964 5270 0 5270 0 0 2964 c0 1974 -3 2981 -10 3017 -33 174 -170 320
-349 373 -50 15 -494 16 -4915 15 -4630 0 -4864 -1 -4917 -18z m9731 -3186 l0
-2705 -2405 0 -2405 0 0 1363 c0 749 3 1966 7 2705 l6 1342 2399 0 2398 0 0
-2705z m-8983 2188 c-2 -16 -4 -3 -4 27 0 30 2 43 4 28 2 -16 2 -40 0 -55z
m1070 0 c-2 -16 -4 -3 -4 27 0 30 2 43 4 28 2 -16 2 -40 0 -55z m-1010 45 c-3
-8 -6 -5 -6 6 -1 11 2 17 5 13 3 -3 4 -12 1 -19z m1810 0 c-3 -8 -6 -5 -6 6
-1 11 2 17 5 13 3 -3 4 -12 1 -19z m-1660 -60 c-2 -13 -4 -3 -4 22 0 25 2 35
4 23 2 -13 2 -33 0 -45z m1100 15 c-3 -10 -5 -4 -5 12 0 17 2 24 5 18 2 -7 2
-21 0 -30z m-884 -3 c3 -11 1 -18 -4 -14 -5 3 -9 12 -9 20 0 20 7 17 13 -6z
m1550 -10 c3 -11 1 -18 -4 -14 -5 3 -9 12 -9 20 0 20 7 17 13 -6z"/>
<path d="M6328 7109 c-38 -22 -9 -85 32 -71 32 11 39 42 14 66 -18 19 -23 19
-46 5z"/>
<path d="M5837 7073 c-4 -3 -7 -96 -7 -205 l0 -198 30 0 30 0 0 137 0 137 38
-80 c21 -43 47 -100 57 -126 21 -56 40 -76 61 -62 9 5 42 68 75 139 l59 130 0
-137 0 -138 30 0 30 0 -2 203 -3 202 -30 0 c-32 0 -24 15 -138 -246 l-28 -64
-21 40 c-12 22 -43 89 -70 149 -26 61 -54 113 -60 118 -16 9 -42 10 -51 1z"/>
<path d="M7520 6876 l0 -206 73 0 c150 0 235 51 257 153 8 39 8 67 -1 105 -21
102 -83 141 -236 150 l-93 5 0 -207z m206 132 c39 -18 64 -68 64 -128 0 -104
-45 -150 -149 -150 l-61 0 0 151 0 152 61 -7 c33 -4 72 -12 85 -18z"/>
<path d="M6327 6994 c-4 -4 -7 -79 -7 -166 l0 -159 28 3 27 3 0 160 c0 153 -1
160 -20 163 -12 2 -24 0 -28 -4z"/>
<path d="M6492 6980 c-73 -45 -61 -124 25 -156 98 -36 113 -43 113 -58 0 -24
-29 -46 -61 -46 -28 0 -69 30 -69 50 0 16 -50 12 -56 -4 -8 -21 13 -55 49 -76
58 -36 161 -19 187 29 30 57 -3 107 -91 136 -65 21 -79 31 -79 56 0 44 86 43
110 -1 7 -13 21 -20 40 -20 34 0 36 9 14 51 -29 56 -121 76 -182 39z"/>
<path d="M6805 6991 c-35 -15 -59 -50 -59 -87 0 -46 24 -68 104 -96 69 -25 88
-50 54 -75 -30 -22 -64 -15 -92 17 -31 35 -72 41 -72 10 0 -11 13 -34 29 -52
28 -31 33 -33 96 -33 61 0 69 3 91 28 49 58 23 121 -61 147 -57 17 -85 37 -85
60 0 45 82 48 102 4 14 -30 68 -35 68 -6 0 63 -104 112 -175 83z"/>
<path d="M7016 6991 c-4 -5 11 -49 32 -98 21 -48 49 -116 61 -150 l23 -63 -26
-65 c-14 -36 -26 -70 -26 -75 0 -6 13 -10 29 -10 26 0 31 6 64 88 20 48 61
148 91 222 31 74 56 141 56 148 0 9 -10 12 -27 10 -32 -3 -40 -18 -89 -153
-32 -89 -33 -90 -44 -60 -6 17 -28 71 -49 120 -32 78 -41 90 -63 93 -14 2 -29
-1 -32 -7z"/>
<path d="M7995 6986 c-16 -7 -43 -28 -60 -45 -28 -30 -30 -38 -30 -104 0 -56
4 -78 19 -98 35 -45 68 -63 126 -67 45 -3 61 0 89 20 54 37 74 71 79 135 3 48
0 64 -20 92 -12 19 -35 43 -50 54 -34 25 -113 32 -153 13z m137 -77 c62 -75
-3 -204 -92 -184 -94 21 -108 163 -22 207 40 19 87 10 114 -23z"/>
<path d="M8247 6993 c-3 -5 17 -80 45 -166 49 -154 50 -157 78 -157 28 0 30 4
60 98 17 53 33 104 37 112 3 9 21 -32 42 -95 35 -106 37 -110 65 -110 27 0 29
3 77 150 27 83 47 156 44 163 -3 7 -15 12 -27 10 -19 -3 -27 -20 -57 -122
l-35 -119 -34 109 c-18 60 -35 115 -37 122 -2 6 -16 12 -30 12 -30 0 -34 -8
-71 -143 -15 -53 -29 -95 -32 -93 -2 3 -19 56 -37 118 -29 104 -34 113 -58
116 -14 2 -27 -1 -30 -5z"/>
<path d="M8744 6987 c-2 -7 -3 -80 -2 -162 l3 -150 30 0 30 0 5 118 c4 103 8
121 24 133 36 26 84 21 114 -12 20 -23 22 -35 22 -135 l0 -109 30 0 30 0 0
124 c0 110 -2 126 -21 150 -42 53 -112 71 -169 41 -25 -13 -29 -13 -34 0 -7
18 -55 20 -62 2z"/>
<path d="M9166 6977 c-54 -30 -77 -73 -77 -142 0 -99 61 -165 153 -165 72 0
126 33 142 88 7 20 4 22 -28 22 -25 0 -36 -5 -41 -18 -6 -19 -44 -42 -71 -42
-38 0 -94 51 -94 85 0 2 55 6 123 7 l122 3 -2 40 c-4 62 -22 94 -68 120 -52
31 -107 32 -159 2z m142 -63 c41 -46 32 -54 -67 -54 l-90 0 11 31 c12 36 60
61 98 53 14 -2 35 -16 48 -30z"/>
<path d="M9462 6992 c-9 -7 -12 -46 -10 -163 l3 -154 30 0 30 0 5 110 c3 61 9
116 13 122 4 7 26 18 48 24 35 11 40 16 37 38 -4 34 -33 39 -68 12 -27 -20
-28 -20 -33 -1 -5 21 -32 26 -55 12z"/>
<path d="M6477 6363 c-4 -3 -7 -21 -7 -40 0 -30 -2 -33 -19 -23 -33 17 -61 11
-93 -20 -26 -27 -30 -36 -25 -67 4 -20 15 -46 26 -56 19 -19 34 -21 111 -15
l35 3 3 90 c4 116 -6 154 -31 128z m-42 -89 c9 -4 21 -18 26 -32 19 -49 -39
-95 -71 -57 -18 22 -15 66 6 82 21 15 18 15 39 7z"/>
<path d="M8326 6363 c-3 -4 -6 -21 -6 -39 0 -31 -1 -32 -29 -21 -70 26 -127
-45 -96 -119 16 -40 58 -60 90 -46 12 6 33 8 48 5 l27 -5 0 110 c0 85 -3 111
-14 115 -8 3 -17 3 -20 0z m-35 -93 c13 -7 19 -21 19 -43 0 -57 -45 -77 -74
-35 -21 30 -20 44 4 68 23 23 25 23 51 10z"/>
<path d="M5896 6331 c-10 -11 -16 -31 -14 -48 2 -22 12 -33 51 -51 33 -15 47
-28 47 -42 0 -24 -47 -28 -56 -5 -9 22 -44 19 -44 -3 0 -40 85 -59 120 -27 44
39 18 93 -53 111 -21 5 -27 12 -25 28 4 26 30 32 51 11 19 -19 47 -20 47 -2 0
44 -92 64 -124 28z"/>
<path d="M6060 6330 c0 -11 -4 -20 -10 -20 -5 0 -10 -7 -10 -15 0 -8 5 -15 10
-15 6 0 10 -26 10 -58 0 -65 11 -82 52 -82 34 0 39 27 6 32 -20 3 -23 10 -26
56 -3 50 -2 52 23 52 32 0 29 23 -3 28 -14 2 -22 11 -22 23 0 10 -7 19 -15 19
-8 0 -15 -9 -15 -20z"/>
<path d="M6910 6332 c0 -10 -6 -24 -12 -31 -10 -11 -10 -14 0 -18 7 -3 12 -24
12 -54 0 -66 13 -89 50 -89 20 0 30 5 30 15 0 8 -9 15 -20 15 -18 0 -20 7 -20
55 0 48 2 55 20 55 11 0 20 7 20 15 0 8 -9 15 -20 15 -13 0 -20 7 -20 20 0 13
-7 20 -20 20 -13 0 -20 -7 -20 -18z"/>
<path d="M7090 6245 c0 -98 1 -105 20 -105 17 0 20 7 20 45 0 45 0 45 35 45
24 0 35 5 35 15 0 10 -11 15 -35 15 -32 0 -35 2 -35 30 0 29 2 30 45 30 33 0
45 4 45 15 0 12 -14 15 -65 15 l-65 0 0 -105z"/>
<path d="M7730 6331 c0 -10 -7 -21 -15 -25 -8 -3 -15 -10 -15 -16 0 -5 7 -10
15 -10 11 0 15 -13 15 -54 0 -75 6 -86 46 -86 40 0 45 16 9 30 -22 8 -25 15
-25 60 0 47 1 50 26 50 31 0 28 23 -4 28 -14 2 -22 11 -22 23 0 10 -7 19 -15
19 -8 0 -15 -9 -15 -19z"/>
<path d="M6160 6242 c0 -73 17 -104 56 -103 11 1 36 1 57 1 l37 1 0 85 c0 76
-2 85 -17 82 -14 -2 -19 -16 -23 -62 -6 -66 -26 -90 -57 -70 -13 8 -19 27 -21
73 -2 45 -7 61 -17 61 -12 0 -15 -15 -15 -68z"/>
<path d="M6568 6295 c-46 -25 -48 -108 -3 -145 37 -30 125 -5 125 37 0 18 -25
17 -40 -2 -15 -18 -51 -20 -68 -3 -22 22 -12 28 53 28 70 0 76 6 54 53 -20 44
-73 58 -121 32z m72 -30 c18 -21 9 -27 -36 -23 -36 3 -37 4 -20 21 21 21 40
22 56 2z"/>
<path d="M6720 6223 c0 -76 2 -83 20 -83 18 0 20 7 20 60 0 48 4 61 19 70 25
13 27 13 45 -6 11 -10 16 -34 16 -70 0 -41 4 -54 15 -54 12 0 15 14 15 65 0
86 -16 104 -94 102 l-56 -1 0 -83z"/>
<path d="M7240 6223 c0 -75 2 -84 18 -81 13 2 18 15 20 61 3 51 6 59 28 67 41
16 30 37 -21 37 l-45 0 0 -84z"/>
<path d="M7365 6288 c-47 -41 -31 -127 26 -147 74 -26 135 36 109 114 -18 55
-89 72 -135 33z m83 -24 c26 -18 28 -50 5 -76 -19 -21 -44 -23 -61 -6 -18 18
-15 75 6 87 23 14 24 14 50 -5z"/>
<path d="M7535 6302 c-3 -3 -5 -41 -5 -84 0 -71 2 -78 20 -78 18 0 20 7 20 54
0 52 16 86 40 86 24 0 40 -34 40 -86 0 -47 2 -54 20 -54 18 0 20 7 20 60 0 51
-4 65 -24 85 -20 19 -34 24 -75 23 -28 -1 -53 -4 -56 -6z"/>
<path d="M7846 6289 c-21 -16 -26 -29 -26 -62 1 -48 15 -72 53 -86 39 -15 97
13 97 46 0 18 -25 17 -40 -3 -17 -20 -64 -14 -68 9 -3 15 5 17 57 17 59 0 61
1 61 25 0 35 -42 75 -78 75 -16 0 -41 -9 -56 -21z m75 -19 c32 -18 21 -30 -28
-30 -45 0 -46 0 -28 20 21 23 29 24 56 10z"/>
<path d="M8005 6301 c-3 -2 -5 -40 -5 -83 0 -71 2 -78 20 -78 11 0 21 6 21 13
3 26 6 63 8 89 1 17 8 29 21 33 35 11 50 -12 50 -76 0 -52 2 -59 20 -59 18 0
20 7 20 65 0 84 -18 104 -96 102 -30 -1 -57 -3 -59 -6z"/>
<path d="M6610 5860 c0 -103 1 -110 20 -110 19 0 20 7 20 110 0 103 -1 110
-20 110 -19 0 -20 -7 -20 -110z"/>
<path d="M5880 5856 l0 -106 50 0 c56 0 104 20 120 49 18 36 12 98 -14 127
-20 24 -32 28 -90 32 l-66 4 0 -106z m120 54 c20 -20 27 -74 12 -97 -8 -13
-55 -33 -78 -33 -11 0 -14 17 -14 75 l0 75 30 0 c17 0 39 -9 50 -20z"/>
<path d="M6101 5894 c-46 -59 -11 -144 58 -144 36 0 81 28 81 50 0 16 -36 12
-50 -5 -15 -18 -42 -19 -58 -3 -22 22 -12 28 48 28 59 0 60 0 60 28 0 67 -98
99 -139 46z m80 -14 c31 -17 22 -30 -21 -30 -42 0 -52 12 -22 29 21 13 20 13
43 1z"/>
<path d="M6250 5913 c0 -5 14 -43 32 -86 27 -65 35 -77 52 -75 16 2 28 22 50
81 16 42 27 80 23 83 -14 15 -36 -8 -53 -55 -10 -28 -21 -51 -24 -51 -4 0 -15
25 -25 55 -14 39 -24 55 -37 55 -10 0 -18 -3 -18 -7z"/>
<path d="M6444 5899 c-29 -32 -26 -105 5 -130 41 -33 131 -15 131 27 0 18 -27
18 -46 -1 -20 -20 -39 -19 -60 3 -17 16 -14 17 50 20 l68 3 -6 32 c-3 18 -16
40 -27 50 -30 24 -91 22 -115 -4z m87 -19 c5 0 9 -7 9 -15 0 -11 -11 -15 -40
-15 -22 0 -40 2 -40 4 0 13 35 36 47 32 8 -3 19 -6 24 -6z"/>
<path d="M6699 5901 c-19 -15 -24 -29 -24 -66 0 -37 5 -51 24 -66 31 -25 82
-24 115 2 35 28 37 95 3 127 -29 28 -86 29 -118 3z m99 -62 c3 -23 -2 -37 -14
-46 -24 -17 -31 -16 -54 7 -25 25 -25 45 0 70 29 29 64 13 68 -31z"/>
<path d="M6870 5792 c0 -112 2 -123 18 -120 12 2 18 15 20 45 l3 41 39 -5 c32
-5 43 -1 64 20 32 32 35 83 5 121 -19 24 -26 26 -85 24 l-64 -2 0 -124z m127
62 c9 -24 -6 -62 -28 -69 -48 -15 -80 59 -37 89 23 16 54 7 65 -20z"/>
<path d="M7082 5897 c-31 -33 -30 -96 1 -125 33 -31 87 -29 117 3 20 22 21 25
6 31 -10 4 -24 -1 -35 -10 -21 -19 -42 -21 -59 -4 -22 22 -12 28 48 28 56 0
60 1 60 24 0 13 -9 35 -21 50 -27 35 -86 36 -117 3z m79 -17 c31 -17 22 -30
-21 -30 -42 0 -52 12 -22 29 21 13 20 13 43 1z"/>
<path d="M7244 5906 c-3 -7 -4 -44 -2 -82 2 -55 6 -69 20 -72 14 -3 17 6 20
55 3 50 6 59 28 70 14 7 25 18 25 25 0 18 -85 21 -91 4z"/>
<path d="M6000 4400 c0 -5 9 -10 20 -10 11 0 20 5 20 10 0 6 -9 10 -20 10 -11
0 -20 -4 -20 -10z"/>
<path d="M6850 4400 c0 -5 5 -10 10 -10 6 0 10 5 10 10 0 6 -4 10 -10 10 -5 0
-10 -4 -10 -10z"/>
<path d="M5880 4335 l0 -65 40 0 c22 0 40 5 40 10 0 6 -11 10 -25 10 -24 0
-25 3 -25 55 0 42 -3 55 -15 55 -12 0 -15 -14 -15 -65z"/>
<path d="M6400 4336 c0 -52 3 -66 15 -66 9 0 15 9 15 24 0 18 6 26 21 28 12 2
27 11 33 21 17 26 -4 51 -48 55 l-36 3 0 -65z m58 21 c2 -10 -3 -17 -12 -17
-10 0 -16 9 -16 21 0 24 23 21 28 -4z"/>
<path d="M7540 4381 c-26 -50 -2 -115 41 -109 52 7 48 128 -5 128 -15 0 -30
-8 -36 -19z m31 -28 c-8 -15 -10 -15 -11 -2 0 17 10 32 18 25 2 -3 -1 -13 -7
-23z m15 -49 c-4 -9 -9 -15 -11 -12 -3 3 -3 13 1 22 4 9 9 15 11 12 3 -3 3
-13 -1 -22z"/>
<path d="M7750 4335 l0 -65 40 0 c45 0 55 17 13 22 -34 4 -38 32 -5 36 31 5
28 22 -4 22 -34 0 -26 24 9 28 38 5 23 22 -19 22 l-34 0 0 -65z"/>
<path d="M5994 4368 c-4 -6 -2 -14 4 -16 14 -4 16 -62 2 -62 -5 0 -10 -4 -10
-10 0 -5 16 -10 35 -10 19 0 35 5 35 10 0 6 -4 10 -10 10 -5 0 -10 18 -10 39
0 26 -5 41 -16 45 -21 8 -22 8 -30 -6z"/>
<path d="M6206 4364 c-20 -19 -21 -68 -2 -84 17 -14 63 -10 56 5 -3 6 -9 9
-14 7 -5 -2 -16 0 -25 4 -11 5 -6 9 19 13 28 5 34 10 32 26 -3 19 -28 45 -43
45 -4 0 -15 -7 -23 -16z m39 -24 c3 -5 -3 -10 -15 -10 -12 0 -18 5 -15 10 3 6
10 10 15 10 5 0 12 -4 15 -10z"/>
<path d="M6514 4325 c1 -50 3 -55 24 -55 24 0 28 10 12 26 -15 15 -1 45 19 42
10 -2 17 5 19 20 4 24 -16 30 -35 11 -8 -8 -13 -8 -17 0 -15 24 -22 9 -22 -44z"/>
<path d="M6626 4364 c-20 -19 -21 -68 -2 -84 17 -14 63 -10 56 5 -3 6 -9 9
-14 7 -5 -2 -16 0 -25 4 -11 5 -6 9 19 13 28 5 34 10 32 26 -3 19 -28 45 -43
45 -4 0 -15 -7 -23 -16z m34 -24 c0 -5 -7 -10 -16 -10 -8 0 -12 5 -9 10 3 6
10 10 16 10 5 0 9 -4 9 -10z"/>
<path d="M6825 4371 c-3 -6 1 -14 9 -17 21 -8 22 -64 1 -64 -8 0 -15 -4 -15
-10 0 -5 18 -10 40 -10 22 0 40 5 40 10 0 6 -4 10 -9 10 -6 0 -11 19 -13 43
-2 34 -7 43 -25 45 -11 2 -24 -2 -28 -7z"/>
<path d="M6942 4364 c-25 -18 -30 -65 -8 -84 19 -15 58 -10 64 9 3 9 -1 11
-16 7 -11 -4 -23 -2 -27 4 -4 6 6 10 25 10 26 0 31 3 28 21 -2 12 -12 28 -23
35 -18 12 -24 11 -43 -2z m38 -24 c0 -5 -7 -10 -15 -10 -8 0 -15 5 -15 10 0 6
7 10 15 10 8 0 15 -4 15 -10z"/>
<path d="M7859 4375 c0 0 -2 -24 -2 -52 -2 -52 -1 -53 25 -53 16 0 28 5 28 10
0 6 -4 10 -10 10 -13 0 -13 47 -1 54 5 4 12 0 14 -6 4 -10 8 -9 16 2 21 30 11
35 -70 35z"/>
<path d="M7965 4323 c0 -48 2 -53 23 -53 24 0 28 10 12 26 -15 15 -1 45 19 42
10 -2 16 4 16 17 0 15 -7 19 -35 20 l-36 2 1 -54z"/>
<path d="M8078 4369 c-11 -6 -18 -22 -18 -42 0 -36 15 -57 41 -57 40 0 57 72
23 97 -21 15 -24 16 -46 2z m32 -49 c0 -31 -16 -41 -26 -15 -8 19 2 45 16 45
5 0 10 -13 10 -30z"/>
<path d="M8174 4325 c1 -50 3 -55 24 -55 12 0 22 5 22 10 0 6 -5 10 -11 10 -6
0 -9 10 -7 23 2 14 10 22 23 22 13 0 21 8 23 23 4 24 -16 30 -35 11 -8 -8 -13
-8 -17 0 -15 24 -22 9 -22 -44z"/>
<path d="M6080 4367 c0 -21 35 -97 45 -97 12 0 45 67 45 90 0 25 -29 6 -36
-22 l-7 -33 -10 33 c-6 17 -16 32 -23 32 -8 0 -14 -1 -14 -3z"/>
<path d="M6710 4363 c0 -22 35 -93 45 -93 7 0 20 21 29 47 19 56 19 53 2 53
-8 0 -18 -15 -22 -32 l-7 -33 -14 33 c-11 28 -33 44 -33 25z"/>
<path d="M7014 4353 c2 -10 7 -33 11 -50 7 -34 35 -46 35 -15 1 16 1 16 14 0
22 -29 34 -21 42 27 7 53 0 67 -21 39 -9 -12 -14 -14 -15 -6 0 9 -7 11 -20 7
-11 -4 -20 -2 -20 4 0 6 -7 11 -16 11 -10 0 -14 -6 -10 -17z"/>
<path d="M4196 2228 c-3 -29 -13 -143 -22 -253 -31 -396 -52 -506 -111 -580
-59 -74 -143 -112 -322 -145 -122 -23 -171 -41 -171 -65 0 -13 224 -15 1830
-15 1606 0 1830 2 1830 15 0 23 -50 43 -147 60 -198 34 -263 61 -334 136 -58
61 -82 139 -104 334 -15 140 -45 500 -45 542 l0 23 -1199 0 -1200 0 -5 -52z"/>
</g>
</svg>
